<?xml version="1.0" encoding="UTF-8"?>
<svg id="Layer_2" data-name="Layer 2" xmlns="http://www.w3.org/2000/svg" viewBox="0 0 1586.02 397.85">
  <defs>
    <style>
      .cls-1 {
        fill: none;
        stroke: #fff;
        stroke-width: 2.83px;
      }

      .cls-2 {
        fill: #ffed00;
      }

      .cls-2, .cls-3, .cls-4, .cls-5 {
        stroke-width: 0px;
      }

      .cls-3 {
        fill: #fff;
      }

      .cls-4 {
        fill: #164194;
      }

      .cls-5 {
        fill: #122135;
        isolation: isolate;
        opacity: .3;
      }
    </style>
  </defs>
  <rect class="cls-5" width="1586.02" height="397.85"/>
  <g>
    <polygon class="cls-3" points="939.03 103.82 1200.23 103.82 1200.23 281.24 939.03 281.24 939.03 103.82 939.03 103.82"/>
    <polygon class="cls-4" points="944.05 108.68 1195.21 108.68 1195.21 276.12 944.05 276.12 944.05 108.68 944.05 108.68"/>
    <polygon class="cls-2" points="1064.28 145.17 1069.58 141.3 1074.88 145.17 1072.86 138.91 1078.24 135.04 1071.61 135.04 1069.58 128.71 1067.55 135.05 1060.92 135.04 1066.3 138.91 1064.28 145.17 1064.28 145.17"/>
    <polygon class="cls-2" points="1036.85 152.53 1042.15 148.67 1047.45 152.53 1045.44 146.28 1050.81 142.41 1044.18 142.41 1042.15 136.07 1040.12 142.42 1033.49 142.41 1038.87 146.28 1036.85 152.53 1036.85 152.53"/>
    <polygon class="cls-2" points="1022.09 156.19 1020.06 162.53 1013.42 162.52 1018.8 166.39 1016.79 172.64 1022.09 168.78 1027.39 172.64 1025.37 166.39 1030.75 162.52 1024.12 162.52 1022.09 156.19 1022.09 156.19"/>
    <polygon class="cls-2" points="1014.73 196.17 1020.02 200.04 1018.01 193.78 1023.39 189.91 1016.76 189.91 1014.73 183.58 1012.69 189.93 1006.06 189.91 1011.44 193.78 1009.43 200.04 1014.73 196.17 1014.73 196.17"/>
    <polygon class="cls-2" points="1024.12 217.39 1022.09 211.05 1020.06 217.39 1013.42 217.39 1018.8 221.26 1016.79 227.51 1022.09 223.64 1027.39 227.51 1025.37 221.26 1030.75 217.39 1024.12 217.39 1024.12 217.39"/>
    <polygon class="cls-2" points="1044.22 237.49 1042.19 231.16 1040.16 237.5 1033.53 237.49 1038.91 241.36 1036.9 247.61 1042.2 243.75 1047.49 247.61 1045.48 241.36 1050.86 237.49 1044.22 237.49 1044.22 237.49"/>
    <polygon class="cls-2" points="1071.61 244.78 1069.58 238.44 1067.55 244.79 1060.92 244.78 1066.3 248.64 1064.29 254.9 1069.59 251.03 1074.88 254.9 1072.86 248.64 1078.25 244.78 1071.61 244.78 1071.61 244.78"/>
    <polygon class="cls-2" points="1099 237.49 1096.98 231.16 1094.94 237.5 1088.31 237.49 1093.69 241.36 1091.68 247.61 1096.98 243.75 1102.28 247.61 1100.26 241.36 1105.64 237.49 1099 237.49 1099 237.49"/>
    <polygon class="cls-2" points="1119.11 217.39 1117.08 211.05 1115.05 217.39 1108.42 217.39 1113.8 221.26 1111.78 227.51 1117.08 223.64 1122.38 227.51 1120.36 221.26 1125.74 217.39 1119.11 217.39 1119.11 217.39"/>
    <polygon class="cls-2" points="1133.03 189.84 1126.39 189.84 1124.36 183.5 1122.33 189.84 1115.7 189.84 1121.08 193.71 1119.07 199.96 1124.36 196.08 1129.66 199.96 1127.65 193.71 1133.03 189.84 1133.03 189.84"/>
    <polygon class="cls-2" points="1111.78 172.56 1117.08 168.69 1122.38 172.56 1120.36 166.31 1125.74 162.45 1119.11 162.45 1117.08 156.11 1115.05 162.45 1108.42 162.45 1113.8 166.31 1111.78 172.56 1111.78 172.56"/>
    <polygon class="cls-2" points="1097.05 136.08 1095.02 142.42 1088.39 142.41 1093.77 146.29 1091.75 152.54 1097.06 148.67 1102.35 152.54 1100.34 146.29 1105.72 142.41 1099.08 142.41 1097.05 136.08 1097.05 136.08"/>
  </g>
  <g>
    <path class="cls-1" d="m516.91,265.7c0,1.77-1.44,3.2-3.21,3.21h-154c-1.77-.01-3.2-1.44-3.21-3.21V111.7c.01-1.77,1.45-3.2,3.22-3.2h154c1.77,0,3.2,1.43,3.21,3.2v154Z"/>
    <path class="cls-3" d="m472.55,146.07h-72l-26.32,25.34v2.05h3.26c-.29,8.14-5.34,12.06-9.76,14.56l-.37.21v2.15h138.71v-2.16l-.37-.21c-4.43-2.5-9.47-6.42-9.76-14.56h3.23v-2.05l-26.31-25.34h-.31Zm-.29,1.48l25.39,24.44h-3.16v.71c0,9.9,6.64,14.32,9.88,16.2h-135.26c3.24-1.88,9.88-6.3,9.88-16.2v-.73h-3.21l25.38-24.44,71.1.02Z"/>
    <rect class="cls-3" x="404.79" y="143.39" width="6.37" height="6.85"/>
    <rect class="cls-3" x="404.79" y="139.47" width="6.37" height="1.96"/>
    <rect class="cls-3" x="422.23" y="143.39" width="6.36" height="6.85"/>
    <rect class="cls-3" x="422.23" y="139.47" width="6.36" height="1.96"/>
    <rect class="cls-3" x="444.84" y="143.39" width="6.36" height="6.85"/>
    <rect class="cls-3" x="444.84" y="139.47" width="6.36" height="1.96"/>
    <rect class="cls-3" x="462.27" y="143.39" width="6.37" height="6.85"/>
    <rect class="cls-3" x="462.27" y="139.47" width="6.37" height="1.96"/>
    <rect class="cls-3" x="382.13" y="171.99" width="41.77" height="1.37"/>
    <rect class="cls-3" x="449.53" y="171.99" width="41.77" height="1.37"/>
    <rect class="cls-3" x="401.07" y="180.11" width="2.95" height="2.2"/>
    <rect class="cls-3" x="396.67" y="180.11" width="2.94" height="2.2"/>
    <rect class="cls-3" x="396.67" y="183.78" width="2.94" height="2.2"/>
    <rect class="cls-3" x="401.07" y="183.78" width="2.95" height="2.2"/>
    <path class="cls-3" d="m400.35,175.7l-.19.07-4.85,1.64v1.29l5-1.71,5,1.71v-1.27l-4.96-1.73Z"/>
    <path class="cls-3" d="m502.01,230.75v4.4h-55.52v-1.45h-19.57v1.47h-55.51v-4.4h1.72v-41.07h46.9v-3.67c5-2.94,6.81-7.68,6.81-14h2.94c.15-3.83,3.37-6.82,7.2-6.67,3.63.14,6.53,3.05,6.67,6.67h2.94c0,6.31,1.83,11,6.81,14h0v3.67h46.9v41.1l1.71-.05Zm-77.52,7.35v1.87h24.47v-1.87h-24.47Zm12.22-27.4c-1.64,0-3.2.69-4.31,1.89h8.61c-1.11-1.2-2.67-1.89-4.3-1.89Zm0-1.47c2.49,0,4.81,1.27,6.16,3.36h1.7c-2.21-4.34-7.52-6.07-11.86-3.86-1.66.85-3.01,2.2-3.86,3.86h1.69c1.36-2.09,3.68-3.35,6.17-3.35h0Zm-13.74-21.68v1.36h27.52v-1.36h-27.52Zm7.38,4.29v1.37h12.73v-1.37h-12.73Zm0,2.9v1.36h12.73v-1.36h-12.73Zm5.63-16.12v-3.85c-1.98.32-3.53,1.87-3.85,3.85h3.85Zm1.48,0h3.85c-.32-1.98-1.87-3.53-3.85-3.85v3.85Zm-1.48,1.47h-3.85c.31,1.98,1.87,3.54,3.85,3.85v-3.85Zm1.48,0v3.85c1.98-.32,3.53-1.87,3.85-3.85h-3.85Zm-1.45,18.93h-3v5.87h3v-5.87Zm1.48,0v5.87h2.89v-5.87h-2.89Zm-59.76-7.18v36h1.47v-36h-1.47Zm43.76,0v36h1.47v-36h-1.47Zm-36.42,2.9v-2.9h-2.94v2.9h2.94Zm1.47,0h2.95v-2.9h-2.94v2.9Zm0,1.47v5.42h2.95v-5.42h-2.95Zm-1.47,0h-2.94v5.42h2.94v-5.42Zm1.47,27.49v4.11h2.95v-4.11h-2.95Zm-1.47,0h-2.94v4.11h2.94v-4.11Zm0-11.77v-5.14h-2.94v5.14h2.94Zm1.47,0h2.95v-5.14h-2.94v5.14Zm-1.47,1.48h-2.94v5.14h2.94v-5.14Zm1.47,0v5.14h2.95v-5.14h-2.95Zm13.07-18.66v-2.9h-2.93v2.9h2.93Zm1.46,0h2.95v-2.9h-2.95v2.9Zm0,1.47v5.42h2.95v-5.42h-2.95Zm-1.46,0h-2.93v5.42h2.93v-5.42Zm1.46,27.48v4.11h2.95v-4.11h-2.95Zm-1.46,0h-2.93v4.11h2.93v-4.11Zm0-11.77v-5.14h-2.93v5.14h2.93Zm1.46,0h2.95v-5.14h-2.95v5.14Zm-1.46,1.48h-2.93v5.14h2.93v-5.14Zm1.46,0v5.14h2.95v-5.14h-2.95Zm13.08-18.66v-2.9h-2.95v2.9h2.95Zm1.47,0h2.94v-2.9h-2.94v2.9Zm0,1.47v5.42h2.94v-5.42h-2.94Zm-1.47,0h-2.95v5.42h2.95v-5.42Zm1.47,27.48v4.11h2.94v-4.11h-2.94Zm-1.47,0h-2.95v4.11h2.95v-4.11Zm0-11.77v-5.14h-2.95v5.14h2.95Zm1.47,0h2.94v-5.14h-2.94v5.14Zm-1.47,1.48h-2.95v5.14h2.95v-5.14Zm1.47,0v5.14h2.94v-5.14h-2.94Zm27,1.66h-12.52v15.68h-54v1.36h55.5v-15.57h10.3v15.57h55.49v-1.36h-54v-15.68h-.77Zm-5.13,7.33v9.71h2.89v-9.71h-2.89Zm2.89-1.47v-2.93h-7.33v2.93h7.33Zm-4.37,1.47h-3v9.71h3v-9.71Zm58.22-30.55v36h1.47v-36h-1.47Zm-43.76,0v36h1.47v-36h-1.47Zm40.82,2.9v-2.9h-2.94v2.9h2.94Zm-4.4-2.9h-2.94v2.9h2.94v-2.9Zm-2.94,4.37v5.42h2.94v-5.42h-2.94Zm4.4,5.42h2.94v-5.42h-2.94v5.42Zm-4.4,22.06v4.11h2.94v-4.11h-2.94Zm4.4,4.11h2.94v-4.11h-2.94v4.11Zm2.94-15.88v-5.14h-2.94v5.14h2.94Zm-4.4-5.14h-2.94v5.14h2.94v-5.14Zm1.46,11.76h2.94v-5.14h-2.94v5.14Zm-4.4-5.14v5.14h2.94v-5.14h-2.94Zm-7.19-18.66v-2.9h-2.95v2.9h2.95Zm-4.41-2.9h-2.94v2.9h2.94v-2.9Zm-2.94,4.37v5.42h2.94v-5.42h-2.94Zm4.4,5.42h2.95v-5.42h-2.95v5.42Zm-4.4,22.06v4.11h2.94v-4.11h-2.94Zm4.4,4.11h2.95v-4.11h-2.95v4.11Zm2.95-15.88v-5.14h-2.95v5.14h2.95Zm-4.41-5.14h-2.94v5.14h2.94v-5.14Zm1.46,11.76h2.95v-5.14h-2.95v5.14Zm-4.4-5.14v5.14h2.94v-5.14h-2.94Zm-7.19-18.66v-2.9h-2.94v2.9h2.94Zm-4.41-2.9h-2.93v2.9h2.93v-2.9Zm-2.93,4.37v5.42h2.93v-5.42h-2.93Zm4.4,5.42h2.94v-5.42h-2.94v5.42Zm-4.4,22.06v4.11h2.93v-4.11h-2.93Zm4.4,4.11h2.94v-4.11h-2.94v4.11Zm2.94-15.88v-5.14h-2.94v5.14h2.94Zm-4.41-5.14h-2.93v5.14h2.93v-5.14Zm1.47,11.76h2.94v-5.14h-2.94v5.14Zm-4.4-5.14v5.14h2.93v-5.14h-2.93Z"/>
    <rect class="cls-3" x="469.41" y="180.11" width="2.94" height="2.2"/>
    <rect class="cls-3" x="473.81" y="180.11" width="2.93" height="2.2"/>
    <rect class="cls-3" x="473.81" y="183.78" width="2.93" height="2.2"/>
    <rect class="cls-3" x="469.41" y="183.78" width="2.94" height="2.2"/>
    <path class="cls-3" d="m473.08,175.7l.19.07,4.85,1.64v1.29l-5-1.71-5,1.71v-1.27l4.96-1.73Z"/>
    <g>
      <path class="cls-3" d="m581.39,109.4v3.36h10.78v31.47h3.74v-31.47h10.79v-3.36h-25.31Z"/>
      <path class="cls-3" d="m646.29,109.4v3.36h10.78v31.47h3.74v-31.47h10.78v-3.36h-25.3Z"/>
      <path class="cls-3" d="m705.06,112.76v-3.36h-21.57v34.83h21.56v-3.36h-17.76v-12.85h17.27v-3.32h-17.27v-11.9l17.77-.04Z"/>
      <path class="cls-3" d="m630.22,109.4h-6.8l-11.86,34.83h3.86s3.18-9.33,3.51-10.27h15.79l3.51,10.27h3.85l-11.86-34.83Zm-2.79,3.3l6.17,18h-13.57l6.18-18h1.22Z"/>
      <path class="cls-3" d="m743.35,109.4v31.57h-.86l-17.19-31.57h-7v34.83h3.69v-31.53h1l17.13,31.57h6.91v-34.87h-3.68Z"/>
      <path class="cls-3" d="m573.64,134.08c0-9.26-6.37-9.39-13-9.49h-1.61c-5.37-.05-8-.29-8-5.63,0-5.63,2.12-6.92,9.71-6.92,4.59,0,10.37.47,10.37.47l.05-3.25s-5.18-.51-10.81-.51c-7.77,0-13.38.9-13.38,10.26s6.19,9.24,12.63,9.34h1.81c5.36.06,8.12.05,8.12,5.89s-2.13,6.91-9.72,6.91c-4.57,0-10.91-.47-10.91-.47l-.05,3.25s5.72.51,11.36.51c7.77,0,13.43-.92,13.43-10.36Z"/>
      <path class="cls-3" d="m786.36,134.08c0-9.26-6.37-9.39-13-9.49h-1.6c-5.37-.05-8-.29-8-5.63,0-5.63,2.12-6.92,9.71-6.92,4.58,0,10.37.47,10.37.47v-3.25s-5.18-.51-10.81-.51c-7.77,0-13.39.9-13.39,10.26s6.19,9.24,12.64,9.34h1.81c5.36.06,8.12.05,8.12,5.89s-2.13,6.91-9.72,6.91c-4.58,0-10.91-.47-10.91-.47v3.25s5.72.51,11.35.51c7.77,0,13.43-.92,13.43-10.36Z"/>
      <path class="cls-3" d="m685.74,190.78v-20.55h-3.75v18.07c0,5.72,0,8.59-1,10.42-1.16,2.08-3.66,3.09-7.65,3.09s-6.61-1-7.76-3.09c-.89-1.59-.88-4.11-.85-8.69v-19.8h-3.74v18.75c0,3.18-.1,8,.8,10.39,1.08,2.78,4,6.09,11.56,6.09,5.3,0,8.7-1.5,10.73-4.7,1.49-2.36,1.66-6.01,1.66-9.98Z"/>
      <path class="cls-3" d="m608.61,173.6v-3.36h-21.56v34.83h21.56v-3.36h-17.77v-12.85h17.27v-3.36h-17.27v-11.9h17.77Z"/>
      <path class="cls-3" d="m729.41,170.23s-10.12,24.74-10.49,25.67h-1.06l-10.5-25.67h-7v34.83h3.64v-31.57h.87c.38.92,10.43,25.67,10.43,25.67h6.19s10.06-24.75,10.44-25.67h.86v31.57h3.64v-34.83h-7.02Z"/>
      <path class="cls-3" d="m649.87,205.06l-8-16.37c.24-.06.49-.15.72-.24,1.39-.52,4.64-2,4.64-8.47,0-3.58-.72-6-2.27-7.51-2.25-2.25-5.85-2.24-10-2.24h-11.73v34.83h3.73v-15.82h7.15c1.62,0,2.9,0,4-.06l7.7,15.88h4.06Zm-6.31-25.23c0,2.25-.41,3.94-1.27,4.79-1.26,1.25-3.64,1.23-6.65,1.21h-8.68v-12.29h8c3.28,0,5.87,0,7.27,1.37.9.9,1.33,2.63,1.33,4.92h0Z"/>
      <path class="cls-3" d="m573.71,194.9c0-9.26-6.37-9.39-13-9.49h-1.61c-5.37,0-8-.28-8-5.63,0-5.62,2.13-6.91,9.72-6.91,4.57,0,10.36.47,10.36.47l.05-3.25s-5.18-.52-10.8-.52c-7.78,0-13.39.91-13.39,10.27s6.19,9.24,12.63,9.33h1.82c5.35.06,8.11.06,8.11,5.89s-2.12,6.92-9.72,6.92c-4.57,0-10.9-.48-10.9-.48l-.05,3.25s5.72.52,11.35.52c7.77-.01,13.43-.94,13.43-10.37Z"/>
      <path class="cls-3" d="m595.6,231.86v31.57h-.83l-17.22-31.57h-7v34.84h3.69v-31.57h1l17.15,31.57h6.9v-34.84h-3.69Z"/>
      <rect class="cls-3" x="550.84" y="231.86" width="3.74" height="34.83"/>
      <path class="cls-3" d="m641.14,231.86v3.36h10.79v31.48h3.74v-31.48h10.82v-3.36h-25.35Z"/>
      <rect class="cls-3" x="678.35" y="231.86" width="3.74" height="34.83"/>
      <path class="cls-3" d="m694.38,231.86v3.36h10.77v31.48h3.75v-31.48h10.78v-3.36h-25.3Z"/>
      <path class="cls-3" d="m756.06,252.41v-20.55h-3.75v18.08c0,5.72,0,8.58-1,10.42-1.16,2.08-3.66,3.09-7.65,3.09s-6.62-1-7.76-3.09c-.89-1.59-.88-4.11-.86-8.69v-19.81h-3.74v18.75c0,3.2-.09,8,.81,10.4,1.08,2.78,4,6.08,11.56,6.08,5.29,0,8.7-1.49,10.73-4.69,1.5-2.36,1.66-6.01,1.66-9.99Z"/>
      <path class="cls-3" d="m767.66,231.86v3.36h10.83v31.48h3.74v-31.48h10.78v-3.36h-25.35Z"/>
      <path class="cls-3" d="m636.66,256.53c0-9.26-6.37-9.39-13-9.49h-1.61c-5.37-.05-8-.29-8-5.64,0-5.63,2.13-6.91,9.72-6.91,4.57,0,10.36.47,10.36.47l.05-3.26s-5.18-.51-10.81-.51c-7.77,0-13.38.9-13.38,10.26s6.19,9.25,12.62,9.33h1.83c5.35.06,8.11.06,8.11,5.88s-2.12,6.93-9.72,6.93c-4.57,0-10.91-.48-10.91-.48l-.05,3.25s5.73.52,11.36.52c7.78.02,13.43-.91,13.43-10.35Z"/>
    </g>
  </g>
</svg>